<svg height='300px' width='300px'  fill="#ffffff" xmlns="http://www.w3.org/2000/svg" xmlns:xlink="http://www.w3.org/1999/xlink" version="1.1" x="0px" y="0px" viewBox="0 0 100 100" enable-background="new 0 0 100 100" xml:space="preserve"><path d="M95.736,26.158c0.16-1.606-0.673-3.209-2.217-3.936L51.672,2.516c-0.054-0.025-0.11-0.036-0.164-0.058  c-0.13-0.055-0.26-0.1-0.397-0.14c-0.116-0.035-0.232-0.066-0.351-0.089c-0.126-0.025-0.254-0.042-0.384-0.054  C50.25,2.163,50.125,2.153,50,2.153s-0.25,0.01-0.375,0.022c-0.13,0.012-0.257,0.029-0.385,0.054  c-0.118,0.022-0.234,0.054-0.351,0.089c-0.136,0.041-0.267,0.085-0.396,0.14c-0.054,0.022-0.11,0.033-0.164,0.058L6.481,22.223  c-1.544,0.727-2.378,2.33-2.218,3.937c-0.007,0.091-0.034,0.178-0.034,0.27v47.442c0,1.52,0.877,2.903,2.252,3.549l41.847,19.706  c0.129,0.06,0.264,0.089,0.396,0.136c0.099,0.032,0.193,0.072,0.292,0.099c0.325,0.085,0.653,0.14,0.984,0.14  s0.659-0.055,0.984-0.14c0.099-0.026,0.192-0.066,0.292-0.099c0.132-0.047,0.267-0.076,0.396-0.136L93.52,77.42  c1.375-0.646,2.251-2.029,2.251-3.549V26.429C95.771,26.336,95.743,26.25,95.736,26.158z M50,41.799L16.662,26.1L50,10.401  L83.336,26.1L50,41.799z M12.076,32.612l34.001,16.013v38.769L12.076,71.383V32.612z M87.925,71.383L53.923,87.394V48.625  l34.002-16.013V71.383z"></path></svg>