<svg height='300px' width='300px'  fill="#ffffff" xmlns="http://www.w3.org/2000/svg" xmlns:xlink="http://www.w3.org/1999/xlink" version="1.1" x="0px" y="0px" viewBox="0 0 100 100" enable-background="new 0 0 100 100" xml:space="preserve"><path d="M97.068,58.858L80.582,42.372c-0.031-0.032-0.071-0.053-0.104-0.082c-0.503-0.615-1.351-0.883-2.14-0.598l-21.392,7.695  c-0.027,0.009-0.051,0.025-0.078,0.037c-0.062,0.026-0.124,0.056-0.184,0.087c-0.054,0.03-0.104,0.059-0.154,0.092  c-0.054,0.036-0.104,0.075-0.152,0.116c-0.048,0.039-0.093,0.078-0.137,0.122c-0.045,0.044-0.087,0.092-0.127,0.142  c-0.038,0.047-0.075,0.095-0.11,0.146c-0.034,0.053-0.064,0.106-0.095,0.161c-0.031,0.058-0.06,0.117-0.085,0.179  c-0.012,0.028-0.028,0.051-0.039,0.081L48.09,71.938c-0.284,0.79-0.016,1.638,0.599,2.14c0.029,0.034,0.05,0.073,0.082,0.105  L65.257,90.67c0.367,0.368,0.861,0.564,1.363,0.564c0.219,0,0.439-0.037,0.652-0.113l21.392-7.694  c0.04-0.015,0.072-0.04,0.112-0.058c0.074-0.032,0.146-0.068,0.214-0.109c0.069-0.041,0.135-0.086,0.198-0.134  c0.062-0.05,0.121-0.102,0.179-0.158c0.057-0.058,0.108-0.116,0.156-0.179c0.05-0.063,0.094-0.129,0.135-0.197  c0.042-0.069,0.078-0.141,0.109-0.215c0.018-0.039,0.044-0.072,0.059-0.111l7.694-21.391C97.772,60.172,97.597,59.387,97.068,58.858  z M70.017,63.619l-17.04,6.129l6.131-17.04l17.04-6.13L70.017,63.619z M67.118,87.078L53.645,73.605l17.381-6.252L84.5,80.826  L67.118,87.078z M87.226,78.101L73.753,64.626l6.252-17.379L93.478,60.72L87.226,78.101z"></path><path d="M44.98,55.845c0.019-0.038,0.035-0.075,0.051-0.114c0.015-0.033,0.033-0.064,0.045-0.101l7.694-21.39  c0.284-0.79,0.016-1.637-0.598-2.139c-0.03-0.034-0.05-0.073-0.082-0.105L35.604,15.509c-0.529-0.528-1.315-0.704-2.016-0.451  l-21.39,7.694c-0.039,0.014-0.072,0.04-0.109,0.056c-0.076,0.033-0.148,0.07-0.219,0.112c-0.068,0.041-0.133,0.084-0.195,0.133  c-0.064,0.049-0.123,0.101-0.179,0.158s-0.109,0.116-0.158,0.179c-0.049,0.063-0.092,0.127-0.133,0.195  c-0.042,0.071-0.079,0.143-0.112,0.219c-0.017,0.038-0.042,0.07-0.056,0.109l-7.695,21.39c-0.253,0.703-0.077,1.489,0.451,2.017  l16.487,16.488c0.029,0.027,0.062,0.05,0.093,0.075c0.365,0.453,0.917,0.719,1.499,0.719c0.217,0,0.438-0.037,0.652-0.114  l21.392-7.696c0.02-0.007,0.037-0.019,0.056-0.026c0.083-0.032,0.162-0.071,0.239-0.114c0.032-0.018,0.062-0.035,0.093-0.055  c0.081-0.052,0.158-0.109,0.23-0.174c0.014-0.012,0.03-0.021,0.042-0.033c0.083-0.078,0.158-0.163,0.228-0.256  c0.018-0.024,0.032-0.05,0.049-0.074C44.899,55.99,44.942,55.92,44.98,55.845z M24.714,59.603l6.129-17.042l17.041-6.13  l-6.129,17.041L24.714,59.603z M33.743,19.1l13.473,13.474l-17.38,6.252L16.363,25.353L33.743,19.1z M13.636,28.079l13.473,13.474  l-6.252,17.379L7.384,45.458L13.636,28.079z"></path><path d="M62.165,31.175c0.014,0.04,0.041,0.073,0.058,0.111c0.032,0.075,0.067,0.146,0.109,0.216  c0.041,0.069,0.086,0.135,0.136,0.198c0.047,0.063,0.1,0.121,0.155,0.177c0.058,0.058,0.118,0.11,0.182,0.16  c0.061,0.048,0.125,0.091,0.193,0.131c0.07,0.042,0.144,0.08,0.221,0.113c0.038,0.016,0.069,0.042,0.108,0.055l11.922,4.289  c0.213,0.077,0.433,0.114,0.652,0.114c0.503,0,0.995-0.197,1.363-0.565l9.188-9.188c0.013-0.013,0.021-0.03,0.032-0.043  c0.579-0.507,0.822-1.332,0.547-2.1l-4.29-11.922c-0.01-0.028-0.026-0.052-0.038-0.08c-0.025-0.062-0.054-0.121-0.085-0.18  c-0.03-0.055-0.062-0.108-0.094-0.159c-0.035-0.051-0.073-0.099-0.112-0.147c-0.041-0.05-0.081-0.098-0.126-0.142  c-0.044-0.043-0.089-0.082-0.137-0.121c-0.049-0.041-0.1-0.08-0.153-0.116c-0.049-0.033-0.1-0.062-0.152-0.09  c-0.062-0.033-0.122-0.063-0.187-0.089c-0.027-0.011-0.05-0.027-0.078-0.037L69.66,7.471c-0.765-0.275-1.588-0.034-2.096,0.541  c-0.016,0.014-0.034,0.022-0.048,0.037l-9.188,9.188c-0.527,0.528-0.703,1.313-0.451,2.016L62.165,31.175z M79.421,15.08  l2.668,7.415l-7.414-2.667l-2.667-7.413L79.421,15.08z M75.402,32.583l-7.911-2.846l6.175-6.175l7.911,2.846L75.402,32.583z   M68.094,12.925l2.845,7.911l-6.174,6.174l-2.846-7.911L68.094,12.925z"></path><path d="M30.824,74.712c-0.004-0.004-0.01-0.006-0.014-0.011c-0.509-0.559-1.322-0.788-2.078-0.517l-7.229,2.601  c-0.029,0.01-0.053,0.026-0.082,0.039c-0.061,0.024-0.119,0.053-0.177,0.083c-0.055,0.031-0.109,0.062-0.16,0.095  c-0.051,0.035-0.1,0.073-0.147,0.113c-0.049,0.039-0.097,0.08-0.141,0.125c-0.044,0.043-0.084,0.089-0.124,0.137  c-0.041,0.051-0.079,0.099-0.114,0.151c-0.034,0.05-0.063,0.103-0.092,0.155c-0.033,0.061-0.062,0.121-0.088,0.185  c-0.011,0.027-0.027,0.051-0.037,0.079l-2.6,7.229c-0.272,0.755-0.042,1.567,0.516,2.076c0.005,0.005,0.007,0.012,0.013,0.016  l5.571,5.571c0.368,0.368,0.861,0.565,1.363,0.565c0.219,0,0.439-0.037,0.653-0.114l7.229-2.6c0.04-0.015,0.073-0.04,0.111-0.057  c0.075-0.033,0.145-0.069,0.215-0.11s0.134-0.086,0.197-0.135c0.063-0.049,0.123-0.101,0.179-0.157  c0.057-0.057,0.109-0.115,0.158-0.18c0.049-0.062,0.093-0.127,0.134-0.195c0.042-0.07,0.079-0.143,0.111-0.218  c0.017-0.037,0.042-0.07,0.057-0.109l2.6-7.229c0.253-0.703,0.077-1.488-0.451-2.017L30.824,74.712z M31.647,85.364l-2.558-2.559  l1.158-3.218l2.558,2.558L31.647,85.364z M23.663,80.106l2.642-0.951l-0.951,2.642l-2.642,0.951L23.663,80.106z M25.703,89.248  l-2.558-2.558l3.218-1.157l2.558,2.558L25.703,89.248z"></path></svg>