<svg height='300px' width='300px'  fill="#ffffff" xmlns="http://www.w3.org/2000/svg" xmlns:xlink="http://www.w3.org/1999/xlink" version="1.1" x="0px" y="0px" viewBox="0 0 100 100" enable-background="new 0 0 100 100" xml:space="preserve"><path d="M95.241,55.471c0.077-1.076-0.496-2.138-1.53-2.625l-18.736-8.824c-0.037-0.016-0.075-0.024-0.111-0.039  c-0.091-0.038-0.182-0.069-0.274-0.097c-0.08-0.024-0.158-0.044-0.239-0.061c-0.088-0.018-0.177-0.029-0.266-0.038  c-0.086-0.008-0.171-0.015-0.256-0.015c-0.087,0-0.171,0.006-0.257,0.015c-0.09,0.009-0.179,0.02-0.267,0.038  c-0.08,0.016-0.157,0.037-0.236,0.06c-0.095,0.028-0.187,0.06-0.278,0.098c-0.036,0.016-0.072,0.022-0.108,0.039l-7.048,3.32v-14.94  c0-0.063-0.02-0.123-0.022-0.186c0.108-1.101-0.463-2.201-1.521-2.699L35.395,16.004c-0.037-0.018-0.075-0.024-0.112-0.04  c-0.09-0.037-0.18-0.068-0.272-0.097c-0.081-0.023-0.161-0.045-0.241-0.061c-0.088-0.018-0.175-0.029-0.263-0.038  c-0.086-0.008-0.172-0.015-0.257-0.015c-0.087,0-0.171,0.007-0.258,0.015c-0.089,0.009-0.176,0.02-0.263,0.038  c-0.081,0.016-0.16,0.037-0.24,0.061c-0.094,0.028-0.184,0.06-0.274,0.097c-0.037,0.015-0.074,0.021-0.11,0.039L4.407,29.517  c-1.059,0.499-1.63,1.599-1.521,2.7c-0.004,0.062-0.023,0.122-0.023,0.185v32.532c0,1.041,0.602,1.99,1.544,2.434l28.696,13.512  c0.086,0.041,0.179,0.061,0.269,0.092c0.068,0.023,0.133,0.052,0.203,0.07c0.222,0.057,0.447,0.095,0.674,0.095  c0.227,0,0.452-0.038,0.673-0.095c0.069-0.019,0.135-0.047,0.203-0.07c0.09-0.031,0.182-0.051,0.269-0.092l17.007-8.007v3.943  c0,1.041,0.602,1.99,1.543,2.434l18.737,8.823c0.089,0.041,0.181,0.062,0.271,0.092c0.067,0.023,0.132,0.052,0.2,0.068  c0.223,0.059,0.447,0.096,0.675,0.096c0.227,0,0.451-0.037,0.675-0.096c0.068-0.017,0.132-0.045,0.2-0.068  c0.09-0.03,0.183-0.051,0.271-0.092l18.736-8.823c0.942-0.443,1.544-1.393,1.544-2.434V55.573  C95.255,55.538,95.243,55.505,95.241,55.471z M73.828,61.422l-12.734-5.995l12.734-5.997l12.734,5.997L73.828,61.422z   M34.249,42.941L11.388,32.177l22.861-10.766l22.859,10.766L34.249,42.941z M8.243,36.642l23.315,10.979v26.585L8.243,63.227V36.642  z M36.939,74.206V47.621l23.314-10.979v13.233l-6.309,2.971c-1.034,0.487-1.606,1.549-1.529,2.625  c-0.002,0.034-0.014,0.067-0.014,0.103v11.352L36.939,74.206z M57.781,59.813l13.356,6.289v15.296l-13.356-6.29V59.813z   M89.875,75.108l-13.357,6.29V66.103l13.357-6.289V75.108z"></path></svg>