<svg height='300px' width='300px'  fill="#ffffff" xmlns="http://www.w3.org/2000/svg" xmlns:xlink="http://www.w3.org/1999/xlink" version="1.1" x="0px" y="0px" viewBox="0 0 95 95" enable-background="new 0 0 95 95" xml:space="preserve"><g><path d="M52.807,57.876h-1.814c-0.826,0-1.5-0.675-1.5-1.5V38.624c0-0.825,0.674-1.5,1.5-1.5h1.814c0.824,0,1.5,0.675,1.5,1.5   v17.752C54.307,57.201,53.631,57.876,52.807,57.876z"></path><path d="M61.605,62.358h-1.813c-0.825,0-1.5-0.675-1.5-1.5V34.142c0-0.825,0.675-1.5,1.5-1.5h1.813c0.825,0,1.5,0.675,1.5,1.5   v26.717C63.105,61.684,62.43,62.358,61.605,62.358z"></path><path d="M70.404,73.813h-1.814c-0.825,0-1.5-0.675-1.5-1.5V22.687c0-0.825,0.675-1.5,1.5-1.5h1.814c0.825,0,1.5,0.675,1.5,1.5   v49.627C71.904,73.139,71.229,73.813,70.404,73.813z"></path><path d="M79.202,60.117h-1.813c-0.826,0-1.5-0.675-1.5-1.5V36.382c0-0.825,0.674-1.5,1.5-1.5h1.813c0.826,0,1.5,0.675,1.5,1.5   v22.235C80.702,59.442,80.028,60.117,79.202,60.117z"></path><path d="M88.001,80.288h-1.814c-0.825,0-1.5-0.675-1.5-1.5V16.212c0-0.825,0.675-1.5,1.5-1.5h1.814c0.825,0,1.5,0.675,1.5,1.5   v62.576C89.501,79.613,88.827,80.288,88.001,80.288z"></path><path d="M8.813,66.343H6.999c-0.825,0-1.5-0.675-1.5-1.5V30.157c0-0.825,0.675-1.5,1.5-1.5h1.814c0.826,0,1.5,0.675,1.5,1.5v34.686   C10.313,65.668,9.639,66.343,8.813,66.343z"></path><path d="M17.612,62.109h-1.814c-0.824,0-1.5-0.675-1.5-1.5V34.391c0-0.825,0.676-1.5,1.5-1.5h1.814c0.825,0,1.5,0.675,1.5,1.5   v26.219C19.112,61.435,18.437,62.109,17.612,62.109z"></path><path d="M26.411,73.813h-1.814c-0.825,0-1.5-0.675-1.5-1.5V22.687c0-0.825,0.675-1.5,1.5-1.5h1.814c0.825,0,1.5,0.675,1.5,1.5   v49.627C27.911,73.139,27.236,73.813,26.411,73.813z"></path><path d="M35.209,60.366h-1.814c-0.825,0-1.5-0.675-1.5-1.5V36.133c0-0.825,0.675-1.5,1.5-1.5h1.814c0.824,0,1.5,0.675,1.5,1.5   v22.733C36.709,59.691,36.034,60.366,35.209,60.366z"></path><path d="M44.008,55.884h-1.814c-0.826,0-1.5-0.675-1.5-1.5V40.616c0-0.825,0.674-1.5,1.5-1.5h1.814c0.824,0,1.5,0.675,1.5,1.5   v13.768C45.508,55.209,44.833,55.884,44.008,55.884z"></path></g></svg>